<?xml version="1.0" standalone="no"?>
<!DOCTYPE svg PUBLIC "-//W3C//DTD SVG 20010904//EN"
 "http://www.w3.org/TR/2001/REC-SVG-20010904/DTD/svg10.dtd">
<svg version="1.0" xmlns="http://www.w3.org/2000/svg"
 width="16.000000pt" height="16.000000pt" viewBox="0 0 16.000000 16.000000"
 preserveAspectRatio="xMidYMid meet">
<metadata>
Created by potrace 1.11, written by Peter Selinger 2001-2013
</metadata>
<g transform="translate(0.000000,16.000000) scale(0.006154,-0.006154)"
fill="#000000" stroke="none">
<path d="M1770 1925 c-234 -47 -391 -194 -456 -430 -23 -82 -27 -283 -8 -366
47 -206 138 -330 299 -409 110 -54 203 -70 385 -66 208 5 348 48 521 159 l56
35 -1 264 -1 263 -297 3 -298 2 0 -130 0 -130 113 -1 c61 -1 119 -1 128 0 13
1 16 -8 15 -51 -1 -29 -5 -59 -9 -65 -12 -18 -111 -62 -168 -74 -64 -14 -164
-5 -214 20 -106 51 -148 140 -154 326 -6 220 71 352 222 378 97 16 166 -2 223
-59 24 -24 44 -51 44 -60 0 -13 6 -15 28 -11 15 3 100 18 189 34 186 32 174
19 120 133 -54 113 -147 189 -280 227 -71 20 -369 25 -457 8z"/>
<path d="M27 1913 c-2 -4 -4 -286 -4 -625 l0 -618 194 0 193 0 0 255 0 255 36
0 c85 0 116 -33 227 -240 30 -58 75 -141 99 -185 l43 -80 218 -3 c174 -2 217
0 217 11 0 7 -4 17 -9 22 -4 6 -48 87 -96 180 -106 205 -164 283 -237 317
l-51 24 49 14 c85 23 169 91 208 169 85 166 31 376 -118 457 -82 45 -103 47
-542 51 -232 3 -424 1 -427 -4z m655 -255 c104 -31 110 -172 10 -216 -24 -10
-79 -17 -159 -20 l-123 -4 0 126 0 126 116 0 c64 0 134 -5 156 -12z"/>
</g>
</svg>
